<svg version="1.2" xmlns="http://www.w3.org/2000/svg" viewBox="0 0 375 376" width="375" height="376">
	<title>logo</title>
	<defs>
		<clipPath clipPathUnits="userSpaceOnUse" id="cp1">
			<path d="m318.82 70v248.88h-266.82v-248.88z"/>
		</clipPath>
		<clipPath clipPathUnits="userSpaceOnUse" id="cp2">
			<path d="m44.4 49.52h288v288h-288z"/>
		</clipPath>
		<clipPath clipPathUnits="userSpaceOnUse" id="cp3">
			<path d="m276 79.25h29.93v49.75h-29.93z"/>
		</clipPath>
		<clipPath clipPathUnits="userSpaceOnUse" id="cp4">
			<path d="m228 83v48.75h-40.57v-48.75z"/>
		</clipPath>
		<clipPath clipPathUnits="userSpaceOnUse" id="cp5">
			<path d="m232 79.25h38v49.75h-38z"/>
		</clipPath>
	</defs>
	<style>
		.s0 { fill: #ffffff } 
		.s1 { fill: #000000 } 
	</style>
	<g id="Clip-Path: Clip-Path: Clip-Path" clip-path="url(#cp1)">
		<g id="Clip-Path: Clip-Path">
			<g id="Clip-Path">
				<g>
					<path fill-rule="evenodd" class="s0" d="m319 70v248.9h-267v-248.9z"/>
				</g>
			</g>
		</g>
	</g>
	<g id="Clip-Path: Clip-Path: Clip-Path" clip-path="url(#cp2)">
		<g id="Clip-Path: Clip-Path">
			<g id="Clip-Path">
				<g>
					<path class="s1" d="m301 49.5h-225.2c-17.3 0-31.4 14.1-31.4 31.4v225.2c0 17.3 14.1 31.4 31.4 31.4h225.2c17.3 0 31.4-14.1 31.4-31.4v-225.2c0-17.3-14.1-31.4-31.4-31.4zm-21 265.8l-9.3-9.2 22.4-22.4h-202.8v-187l-22.4 22.5-9.3-9.3 38.2-38.2 38.2 38.2-9.2 9.3-22.4-22.5v165.2l102.2-96.8h-29.3v-13.1h54.1v54.1h-13.1v-34l-104 98.5h179.8l-22.4-22.4 9.3-9.3 38.2 38.2z"/>
				</g>
			</g>
		</g>
	</g>
	<filter id="f0">
		<feFlood flood-color="#008957" flood-opacity="1" />
		<feBlend mode="normal" in2="SourceGraphic"/>
		<feComposite in2="SourceAlpha" operator="in" />
	</filter>
	<g id="Clip-Path: Clip-Path: Clip-Path" clip-path="url(#cp3)" filter="url(#f0)">
		<g id="Clip-Path: Clip-Path">
			<g id="Clip-Path">
				<g>
					<path class="s0" d="m300.3 87.4c-2.7-1.2-5.1-1.7-7.7-1-0.5 0.1-1 0.2-1.4 0.2-3.6-0.2-6.8 1.3-10.3 1.6-0.8 0.1-1.7 0.2-2.2 1.1-0.2 0.6-0.7 1-1.3 0.6-0.6-0.2-0.7-0.8-0.7-1.4 0-1.3 0-2.6 0.2-3.8 0.3-1.1 1.1-1.7 2.2-2 1.1-0.3 2.2-0.8 3.2-0.9 3.2-0.2 6.2-1.3 9.2-2 1.3-0.3 2.8-0.2 4.1-0.1 1.8 0.1 3.6-0.4 5.6 0.5 3.2 1.5 5 4.1 3.8 7.4-0.3 0.9-0.7 1.8-1.3 2.5-2.7 3.4-5.3 6.8-8.6 9.7-4.5 3.9-8.3 8.3-11.7 13.1-1.1 1.6-1.8 3.5-2.3 5.5-0.3 1.2 0.3 1.9 1.5 2.2 1.3 0.4 2.7-0.2 3.9 0.3 3.6 1.2 7-0.5 10.5-0.3 1.4 0 3-0.8 4.6-0.9 1.5 0 2.5 0.6 3.2 1.8 0.8 1.4-0.2 2.2-1 2.9-1 0.7-1.2 2.3-2.4 2.7-1.1 0.3-2.4-0.1-3.6-0.1-0.6-0.1-1.1 0-1.7 0.1-3.9 1.2-8 0.9-12 1q-3.5 0.2-6.4-1.9c-0.9-0.6-1.4-1.4-1.1-2.4 0.4-1.2 0.4-2.3 0-3.6-0.1-0.4-0.1-0.9 0.1-1.4 1.2-3.5 1.1-7.6 4.5-10.2 1.4-3.6 4.3-6 6.9-8.5 2.7-2.6 5.1-5.5 8.2-7.7 1.7-1.2 2.8-3 4-5z"/>
				</g>
			</g>
		</g>
	</g>
	<filter id="f1">
		<feFlood flood-color="#008957" flood-opacity="1" />
		<feBlend mode="normal" in2="SourceGraphic"/>
		<feComposite in2="SourceAlpha" operator="in" />
	</filter>
	<g id="Clip-Path: Clip-Path: Clip-Path" clip-path="url(#cp4)" filter="url(#f1)">
		<g id="Clip-Path: Clip-Path">
			<g id="Clip-Path">
				<g>
					<path class="s0" d="m227.4 131.4c-1.6 0.7-3.1-0.5-4.8 0-1.2 0.4-1.5-1.2-1.7-2.2-1-5.1-2.1-6.7-6.4-9.5-0.9-0.6-1.7-1.2-2.3-2.1-1.1-1.5-2.4-2.8-3.9-4-1.6-1.1-2.3-1.1-3.4 0.3-2.7 3.7-5.8 7-7.9 11.1-1.4 2.7-3.6 4.5-5.8 6.3-1 0.7-2 0.2-2.8-0.6-0.9-0.8-0.3-1.7 0.2-2.3 1.6-2.1 3.4-4.2 5.2-6.3 3.2-3.8 6-8 8.9-12 0.8-1.1 0.6-2-0.1-2.9-3.8-4.9-6.5-10.5-9.8-15.7-0.4-0.7-1-1.1-1.5-1.6-1.7-1.8-3-3.8-2.9-6.4 1.1-0.3 1.8 0.1 2.5 0.7 0.7 0.6 1.5 0.9 2.4 1.3 1.6 0.7 2.8 2.2 3.9 3.6 0.3 0.3 0.7 1.2-0.3 1.3-1.7 0.2-1.3 0.7-0.3 1.4 0.9 0.8 1.8 1.5 2 2.7 0.1 0.6 0.4 0.8 0.9 1 2.7 0.8 3.7 3.3 5 5.4 0.5 1 1 2 2.1 2.8 1.4-2 2.9-3.9 4.2-5.9 2.5-3.5 5.1-7 7.9-10.3 1.1-1.2 2.4-1.8 4.1-2-0.1 1.6-0.3 3.1-0.4 4.5 0 0.6-0.3 1.1-0.8 1.5-2.4 1.6-3.8 4-5.4 6.5-1.7 2.8-3.4 5.6-5.8 7.9-1.4 1.3-1.3 2.1 0.1 3.7 2.9 3.4 6.5 6.2 9.6 9.5 1.4 1.4 3.2 2.3 4.4 4 2.2 3.3 2.3 3.5 2.9 8.3z"/>
				</g>
			</g>
		</g>
	</g>
	<filter id="f2">
		<feFlood flood-color="#008957" flood-opacity="1" />
		<feBlend mode="normal" in2="SourceGraphic"/>
		<feComposite in2="SourceAlpha" operator="in" />
	</filter>
	<g id="Clip-Path: Clip-Path: Clip-Path" clip-path="url(#cp5)" filter="url(#f2)">
		<g id="Clip-Path: Clip-Path">
			<g id="Clip-Path">
				<g>
					<path class="s0" d="m247.3 122.4c0.2-2.6 0.8-5.1 0.7-7.7 0-0.5-0.1-1.2-0.3-1.3-2.2-0.7-1.9-2.5-1.7-4 0.3-2-0.8-3.4-2.1-4.6-3.3-3.1-5-7.2-6.6-11.3-0.9-2.7-1.5-5.5-4-7.3-0.5-0.4-0.4-1-0.1-1.5 0.6-1.6 1.3-3.1 2-4.8 2.5 1.5 3.2 3.9 4 6.1 1.3 3.4 2.8 6.6 4.6 9.7 1.2 2.2 3.2 3.1 5.3 3.9 0.6 0.2 1.1 0.1 1.6-0.4 1.5-1.5 2.6-3.4 4.6-4.4 0.6-0.3 0.2-1.4 1.1-1.8 0.1 0.2 0.3 0.4 0.4 0.6q0.4 0.6 0.9 0.3c0.3-0.3 0.2-0.6 0-0.8-0.7-0.4-0.7-1-0.2-1.4 1.3-0.9 2.2-2 2.8-3.5 0.5-1.5 3-1.3 3.3-3.2 0.1-0.3 0.5-0.2 0.7-0.1q1.7 0.1 3.3 0.2c1.1 0.1 1.6 1 1.6 1.7 0 0.7 0.4 1.9-0.8 2.3-3.1 1.1-4.4 3.8-5.7 6.5-0.5 0.9-1.4 1.4-1.8 2.2-2 3.4-4.7 6.1-7.2 9.2-0.3 0.4-0.8 1.2-1.1 1.2-2.1-0.3-1.4 1.4-1.5 2.3-0.2 1.3-0.3 2.7 0.1 3.8 0.9 2.9 0.3 6 1.8 8.7 0.6 1.1 0 2.4 0 3.6 0 1.2-2.3 2.3-3 1.4-1.8-2.2-2.7-5.4-2.7-5.6z"/>
				</g>
			</g>
		</g>
	</g>
</svg>